<svg width="7" height="10" viewBox="0 0 7 10" fill="none" xmlns="http://www.w3.org/2000/svg">
<path d="M0.280029 6.97606H1.21803V6.17806H0.280029V4.91806H1.21803V0.298059C1.5447 0.223392 1.8807 0.167392 2.22603 0.130059C2.5807 0.0833919 2.9587 0.0600586 3.36003 0.0600586C3.78003 0.0600586 4.1767 0.102059 4.55003 0.186059C4.92336 0.270059 5.25003 0.424059 5.53003 0.648059C5.81003 0.872058 6.03403 1.18006 6.20203 1.57206C6.37003 1.96406 6.45403 2.46806 6.45403 3.08406C6.45403 3.65339 6.37003 4.13406 6.20203 4.52606C6.04336 4.91806 5.8287 5.24006 5.55803 5.49206C5.28736 5.73473 4.9747 5.91206 4.62003 6.02406C4.2747 6.12673 3.9107 6.17806 3.52803 6.17806H2.81403V6.97606H4.64803V8.25006H2.81403V10.0001H1.21803V8.25006H0.280029V6.97606ZM3.54203 1.54406C3.38336 1.54406 3.2387 1.54873 3.10803 1.55806C2.9867 1.56739 2.8887 1.58606 2.81403 1.61406V4.89006H3.36003C3.55603 4.89939 3.73803 4.87606 3.90603 4.82006C4.08336 4.76406 4.2327 4.67073 4.35403 4.54006C4.4847 4.40006 4.58736 4.21806 4.66203 3.99406C4.7367 3.77006 4.77403 3.49473 4.77403 3.16806C4.77403 2.58939 4.65736 2.17406 4.42403 1.92206C4.1907 1.67006 3.8967 1.54406 3.54203 1.54406Z" fill="black"/>
</svg>
